<svg width="201" height="120" viewBox="0 0 201 120" fill="none" xmlns="http://www.w3.org/2000/svg">
<path opacity="0.01" d="M98.1461 58.355L-26.6667 -8.44717V-18.6423L98.1787 58.2979C98.2602 58.1512 98.3579 58.0127 98.4719 57.8823L-26.6667 -46.628V-56H-3.12479L98.6104 57.7275C98.6674 57.6704 98.7326 57.6134 98.7978 57.5645L8.73577 -56H33.2389L99.0096 57.4178C99.1318 57.3363 99.2703 57.2711 99.4087 57.214L53.9541 -56H61.8557L99.4413 57.1977C99.588 57.1407 99.7427 57.0999 99.9056 57.0674L79.6792 -56H96.5821L100.126 57.0429C100.199 57.0429 100.264 57.0347 100.337 57.0347C100.394 57.0347 100.451 57.0348 100.517 57.0429L103.531 -56H120.434L100.696 57.0592C100.859 57.0836 101.013 57.1244 101.168 57.1733L138.11 -56H145.979L101.185 57.1896C101.323 57.2385 101.462 57.3037 101.592 57.3852L166.605 -56H190.978L101.796 57.5156C101.877 57.5808 101.958 57.646 102.04 57.7193L202.798 -56H227.333V-47.6956L102.219 57.9149C102.309 58.029 102.398 58.1431 102.472 58.2735L227.333 -19.5469V-9.36807L102.48 58.2898C102.561 58.4365 102.635 58.5995 102.692 58.7625L227.333 12.8558V32.7816L102.757 59.0151C102.773 59.0884 102.781 59.1618 102.789 59.2351L227.333 40.6948V59.1862L102.797 59.4307C102.797 59.4307 102.797 59.4796 102.797 59.5041C102.797 59.6263 102.789 59.7404 102.773 59.8545L227.333 77.6288V85.4442L102.757 59.9604C102.724 60.1397 102.667 60.3109 102.602 60.4739L227.333 105.288V127.341L102.504 60.6695C102.463 60.7347 102.423 60.808 102.382 60.8732L227.333 137.536V165.449L102.26 61.0362C102.154 61.1666 102.04 61.2888 101.91 61.3948L203.995 174.992H192.061L101.869 61.4192C101.755 61.5089 101.624 61.5985 101.494 61.6637L167.542 174.992H146.818L101.331 61.7452C101.225 61.7941 101.119 61.8349 101.005 61.8675L138.917 175H121.102L100.737 61.9327C100.614 61.9571 100.484 61.9652 100.354 61.9652L104.207 175H97.2745L100.313 61.9652C100.158 61.9652 100.003 61.9489 99.8568 61.9164L80.4449 175H62.7355L99.7101 61.8837C99.5961 61.8511 99.4821 61.8186 99.368 61.7697L54.8828 175H34.2979L99.1318 61.6556C98.9933 61.5741 98.8548 61.4844 98.7326 61.3866L9.97396 175H-1.76441L98.7 61.3622C98.6023 61.2807 98.5127 61.191 98.4312 61.0932L-26.6667 167.054V138.905L98.2765 60.8813C98.2276 60.808 98.1787 60.7265 98.138 60.645L-26.6667 128.637V106.47L98.0565 60.4657C97.9995 60.3272 97.9506 60.1805 97.918 60.0338L-26.6667 86.4955V78.5822L97.9017 59.9523C97.8773 59.8056 97.861 59.6508 97.861 59.4959C97.861 59.4715 97.861 59.4552 97.861 59.4307L-26.6667 60.0338V41.4038L97.8854 59.1699C97.8936 59.1047 97.9017 59.0395 97.918 58.9743L-26.6667 33.458V13.6627L97.9588 58.8195C98.0076 58.6565 98.0647 58.5017 98.1461 58.3631V58.355Z" fill="white"/>
</svg>
