<svg width="21" height="22" viewBox="0 0 21 22" fill="none" xmlns="http://www.w3.org/2000/svg">
<path d="M9.97915 19.3335L15.0416 9.19808H11.5416V2.66683L6.33331 12.8022H9.97915V19.3335ZM10.5 0.583496C13.3646 0.583496 15.8125 1.62516 17.8437 3.65641C19.875 5.68766 20.9166 8.13558 20.9166 11.0002C20.9166 13.8647 19.875 16.3127 17.8437 18.3439C15.8125 20.3752 13.3646 21.4168 10.5 21.4168C7.6354 21.4168 5.18748 20.3752 3.15623 18.3439C1.12498 16.3127 0.083313 13.8647 0.083313 11.0002C0.083313 8.13558 1.12498 5.68766 3.15623 3.65641C5.18748 1.62516 7.6354 0.583496 10.5 0.583496Z" fill="white"/>
</svg>
