<svg width="35" height="35" viewBox="0 0 35 35" fill="none" xmlns="http://www.w3.org/2000/svg">
<rect width="35" height="35" rx="17.5" fill="#282836"/>
<path opacity="0.5" d="M24.1563 16.6486L21.3375 19.1086L22.1819 22.7711C22.2266 22.9626 22.2138 23.163 22.1452 23.3472C22.0767 23.5315 21.9553 23.6914 21.7963 23.8071C21.6373 23.9227 21.4477 23.989 21.2513 23.9975C21.0549 24.0059 20.8603 23.9564 20.6919 23.8549L17.4975 21.9174L14.31 23.8549C14.1416 23.9564 13.9471 24.0059 13.7506 23.9975C13.5542 23.989 13.3646 23.9227 13.2056 23.8071C13.0466 23.6914 12.9253 23.5315 12.8567 23.3472C12.7881 23.163 12.7753 22.9626 12.82 22.7711L13.6632 19.1124L10.8438 16.6486C10.6947 16.52 10.5868 16.3502 10.5338 16.1606C10.4808 15.9709 10.485 15.7699 10.5458 15.5826C10.6066 15.3953 10.7213 15.2301 10.8756 15.1078C11.0299 14.9854 11.2169 14.9114 11.4132 14.8949L15.1294 14.573L16.58 11.113C16.6558 10.9314 16.7836 10.7764 16.9473 10.6673C17.111 10.5582 17.3033 10.5 17.5 10.5C17.6967 10.5 17.8891 10.5582 18.0528 10.6673C18.2165 10.7764 18.3443 10.9314 18.42 11.113L19.875 14.573L23.59 14.8949C23.7863 14.9114 23.9732 14.9854 24.1276 15.1078C24.2819 15.2301 24.3966 15.3953 24.4574 15.5826C24.5182 15.7699 24.5224 15.9709 24.4694 16.1606C24.4163 16.3502 24.3085 16.52 24.1594 16.6486H24.1563Z" fill="white"/>
</svg>
